<?xml version="1.0" encoding="UTF-8" ?>
<!DOCTYPE svg PUBLIC "-//W3C//DTD SVG 1.1//EN" "http://www.w3.org/Graphics/SVG/1.1/DTD/svg11.dtd">
<svg width="516pt" height="120pt" viewBox="0 0 516 120" version="1.1" xmlns="http://www.w3.org/2000/svg">
<g id="#fefefeff">
<path fill="#fefefe" opacity="1.00" d=" M 37.55 1.74 C 49.36 0.04 61.35 0.96 73.12 2.47 C 88.45 5.14 101.44 15.66 109.79 28.47 C 116.10 37.49 116.53 49.57 112.86 59.72 C 109.03 71.08 100.55 80.00 91.70 87.72 C 78.90 97.68 62.28 99.77 46.80 102.49 C 39.65 103.82 33.62 98.92 27.55 96.04 C 33.53 67.79 49.59 43.21 58.63 16.03 C 38.92 12.99 19.39 18.43 0.03 21.44 C 9.03 9.86 23.28 3.59 37.55 1.74 M 74.04 22.76 C 68.09 32.39 62.11 42.06 57.62 52.47 C 52.11 64.92 49.25 78.95 52.09 92.46 C 66.74 91.94 82.91 87.31 91.74 74.75 C 97.07 66.34 99.65 55.14 95.31 45.76 C 90.90 36.04 82.45 28.97 74.04 22.76 Z" />
<path fill="#fefefe" opacity="1.00" d=" M 452.85 43.11 C 456.41 33.96 464.86 27.76 473.85 24.52 C 472.28 30.93 470.49 37.29 468.73 43.65 C 463.43 43.51 458.14 43.32 452.85 43.11 Z" />
<path fill="#fefefe" opacity="1.00" d=" M 484.36 57.76 C 493.44 49.48 504.42 43.48 516.00 39.49 L 516.00 48.74 C 512.96 52.09 509.81 55.33 506.77 58.68 C 508.61 66.37 511.85 73.95 511.44 82.00 C 511.20 87.66 507.82 93.50 502.23 95.32 C 491.61 99.49 480.10 96.43 469.08 96.53 C 472.84 90.45 476.58 84.36 480.37 78.30 C 486.29 81.85 492.18 85.45 498.10 89.02 C 493.49 78.61 488.83 68.23 484.36 57.76 Z" />
<path fill="#fefefe" opacity="1.00" d=" M 147.39 43.42 C 150.71 41.84 154.63 40.30 158.27 41.75 C 160.38 42.70 162.40 44.51 162.77 46.90 C 165.20 57.33 165.81 68.64 161.92 78.80 C 158.71 87.33 151.15 94.23 142.16 96.11 C 134.36 97.79 126.35 96.83 118.45 96.93 C 117.61 82.56 120.18 67.02 129.76 55.76 C 134.39 50.09 141.04 46.77 147.39 43.42 M 144.49 57.43 C 139.17 68.48 135.57 80.45 134.68 92.72 C 142.11 86.97 148.85 80.31 154.57 72.86 C 151.22 67.71 147.89 62.55 144.49 57.43 Z" />
<path fill="#fefefe" opacity="1.00" d=" M 367.66 49.56 C 371.84 43.82 379.80 44.66 385.80 42.29 C 383.97 50.46 382.09 58.62 380.00 66.73 C 387.68 56.09 397.45 44.95 411.28 43.23 C 410.17 51.55 408.86 59.85 407.39 68.12 C 416.23 58.75 426.00 50.21 436.79 43.14 C 435.73 60.44 432.61 77.53 431.24 94.80 C 424.56 96.01 417.89 97.23 411.22 98.47 C 411.86 91.49 412.55 84.52 413.28 77.55 C 405.20 86.39 395.62 94.42 384.00 98.01 C 385.64 89.15 387.58 80.35 389.60 71.57 C 379.98 84.43 367.49 97.18 350.81 99.45 C 353.41 82.03 358.40 64.68 367.66 49.56 Z" />
<path fill="#fefefe" opacity="1.00" d=" M 250.71 65.17 C 258.92 55.23 269.80 47.49 282.00 43.28 C 281.24 60.84 279.54 78.36 279.13 95.94 C 272.48 96.44 265.83 96.97 259.18 97.47 C 260.82 85.55 262.81 73.69 264.78 61.82 C 258.66 71.24 253.43 81.41 245.50 89.52 C 240.78 94.40 234.92 98.22 228.39 100.19 C 230.74 82.58 235.74 65.48 240.48 48.40 C 246.18 47.30 251.88 46.22 257.59 45.15 C 255.37 51.85 253.10 58.53 250.71 65.17 Z" />
<path fill="#fefefe" opacity="1.00" d=" M 180.91 48.70 C 187.41 47.68 193.91 46.68 200.41 45.69 C 198.61 52.71 196.73 59.71 194.98 66.74 C 199.18 60.36 203.30 53.94 207.50 47.57 C 213.25 47.16 219.01 46.76 224.77 46.35 C 223.21 62.74 220.88 79.05 219.43 95.45 C 213.74 96.28 208.06 97.13 202.37 97.96 C 202.93 87.33 203.65 76.70 204.63 66.09 C 198.57 76.92 192.36 88.65 181.39 95.29 C 177.04 97.89 172.03 99.22 166.98 99.48 C 170.25 82.21 175.52 65.41 180.91 48.70 Z" />
<path fill="#fefefe" opacity="1.00" d=" M 316.77 49.81 C 327.19 44.20 339.33 47.29 350.55 47.25 C 345.57 66.31 341.37 85.57 338.04 104.97 C 330.77 101.87 323.84 97.04 320.18 89.84 C 308.67 96.29 295.28 98.10 282.28 98.44 C 281.99 87.52 286.77 77.05 293.86 68.94 C 300.39 61.39 308.35 55.14 316.77 49.81 M 304.99 89.84 C 317.84 79.21 328.44 65.80 335.44 50.65 C 319.47 57.74 310.47 74.06 304.99 89.84 Z" />
<path fill="#fefefe" opacity="1.00" d=" M 452.72 49.83 C 458.34 49.19 463.93 48.32 469.54 47.61 C 466.21 59.86 462.69 72.07 459.07 84.24 C 464.70 84.55 470.35 84.80 475.98 85.17 C 466.63 95.85 450.45 100.85 437.24 94.58 C 440.94 79.21 446.46 64.33 452.72 49.83 Z" />
</g>
</svg>
