<?xml version="1.0" encoding="UTF-8" ?>
<!DOCTYPE svg PUBLIC "-//W3C//DTD SVG 1.1//EN" "http://www.w3.org/Graphics/SVG/1.1/DTD/svg11.dtd">
<svg width="622pt" height="622pt" viewBox="0 0 622 622" version="1.1" xmlns="http://www.w3.org/2000/svg">
<g id="#000000ff">
<path fill="#000000" opacity="1.00" d=" M 39.38 25.50 C 45.44 24.02 52.12 25.99 56.45 30.47 C 230.14 204.13 403.80 377.83 577.49 551.49 C 580.86 554.64 584.15 558.29 585.03 563.00 C 587.10 571.43 582.03 580.76 573.93 583.77 C 567.33 586.45 559.34 584.58 554.46 579.43 C 379.99 404.93 205.49 230.45 31.00 55.96 C 26.79 51.92 24.73 45.79 25.79 40.03 C 26.91 33.07 32.51 27.09 39.38 25.50 Z" />
<path fill="#000000" opacity="1.00" d=" M 139.70 87.86 C 261.81 87.71 383.91 87.85 506.02 87.79 C 514.87 87.23 522.95 95.12 522.70 103.96 C 522.75 226.32 522.68 348.69 522.74 471.05 C 478.02 426.72 433.78 381.88 389.00 337.61 C 394.94 326.83 405.22 318.41 417.17 315.25 C 432.04 311.20 448.81 315.40 459.97 326.03 C 464.61 330.24 467.74 335.73 471.23 340.86 C 477.52 350.11 483.45 359.63 489.96 368.71 C 490.10 309.14 489.98 249.57 490.02 190.00 C 489.90 166.79 490.27 143.56 489.84 120.35 C 383.90 120.61 277.95 120.40 172.01 120.46 C 161.31 109.53 150.15 99.02 139.70 87.86 Z" />
<path fill="#000000" opacity="1.00" d=" M 88.27 138.89 C 99.34 149.48 109.93 160.57 120.91 171.26 C 121.13 243.38 120.83 315.50 121.06 387.62 C 147.24 355.91 173.22 324.04 199.31 292.26 C 205.84 284.56 211.89 276.44 218.69 269.00 C 286.25 336.87 354.07 404.49 421.75 472.24 C 438.25 488.87 455.02 505.25 471.32 522.07 C 349.24 522.21 227.14 522.10 105.06 522.13 C 96.27 522.53 88.02 514.91 88.31 506.00 C 88.25 383.63 88.33 261.26 88.27 138.89 Z" />
<path fill="#000000" opacity="1.00" d=" M 364.45 172.63 C 374.27 170.73 384.77 172.58 393.33 177.78 C 403.93 184.15 411.35 195.54 412.73 207.85 C 414.18 219.29 410.45 231.23 402.78 239.82 C 395.14 248.57 383.62 253.72 372.01 253.59 C 360.65 253.64 349.43 248.59 341.87 240.12 C 333.30 230.82 329.59 217.38 332.06 205.00 C 334.94 188.94 348.41 175.54 364.45 172.63 Z" />
</g>
</svg>
